<svg width="858px" height="114px" version="1.1" viewBox="0 0 858 114" xmlns="http://www.w3.org/2000/svg"><title>logo experiments copy 2</title><desc>Created with Sketch.</desc><g fill="none" fill-rule="evenodd"><g transform="translate(-156 -1243)"><g transform="translate(153 1207)"><g transform="translate(83 43)"><circle cx="70" cy="49" r="49" opacity=".46282" stroke="#fff" stroke-linecap="round" stroke-linejoin="round" stroke-width="14"/><path transform="translate(51.062 64.898) rotate(-40) translate(-51.062 -64.898)" d="m75.562 15.898c-27.062 0-49 21.938-49 49s21.938 49 49 49" stroke="#fff" stroke-linejoin="round" stroke-width="14"/><path d="m9.5 106.63c10.2-9.7898 14.9-19.03 14.9-28.819 10.2 9.7895 30.6 19.579 30.6 19.579s-25.1 9.2402-45.5 9.2402z" fill="#fff"/></g><path d="m37.65 81.85c15 0 26.025 2.825 33.075 8.475s10.575 13.375 10.575 23.175c0 6.2-1.475 11.775-4.425 16.725-2.95 4.95-7.4 8.85-13.35 11.7s-13.275 4.275-21.975 4.275c-7.4 0-14.55-1.125-21.45-3.375s-12.6-5.375-17.1-9.375l6.9-11.85c3.6 3.4 8.2 6.125 13.8 8.175s11.5 3.075 17.7 3.075c7.9 0 14.025-1.675 18.375-5.025s6.525-7.925 6.525-13.725c0-6.3-2.4-11.075-7.2-14.325-4.8-3.25-13-4.875-24.6-4.875h-23.85l5.55-54.9h59.25v13.05h-46.65l-2.85 28.8h11.7z" fill="#fff"/><path d="m322.12 40c13.6 0 24.3 3.25 32.1 9.75s11.7 15.45 11.7 26.85-3.9 20.35-11.7 26.85c-7.8 6.5-18.5 9.75-32.1 9.75h-25.95v31.8h-15v-105h40.95zm-0.45 60.15c9.5 0 16.75-2.025 21.75-6.075s7.5-9.875 7.5-17.475-2.5-13.425-7.5-17.475-12.25-6.075-21.75-6.075h-25.5v47.1h25.5zm135.75 5.55c0 1.1-0.099999 2.55-0.3 4.35h-64.5c0.9 7 3.975 12.625 9.225 16.875s11.775 6.375 19.575 6.375c9.5 0 17.15-3.2 22.95-9.6l7.95 9.3c-3.6 4.2-8.075 7.4-13.425 9.6s-11.325 3.3-17.925 3.3c-8.4 0-15.85-1.725-22.35-5.175-6.5-3.45-11.525-8.275-15.075-14.475s-5.325-13.2-5.325-21c0-7.7 1.725-14.65 5.175-20.85s8.2-11.025 14.25-14.475c6.05-3.45 12.875-5.175 20.475-5.175s14.375 1.725 20.325 5.175c5.95 3.45 10.6 8.275 13.95 14.475s5.025 13.3 5.025 21.3zm-39.3-28.8c-6.9 0-12.675 2.1-17.325 6.3s-7.375 9.7-8.175 16.5h51c-0.8-6.7-3.525-12.175-8.175-16.425-4.65-4.25-10.425-6.375-17.325-6.375zm73.05 1.95c2.5-4.6 6.2-8.1 11.1-10.5 4.9-2.4 10.85-3.6 17.85-3.6v13.95c-0.8-0.1-1.9-0.15-3.3-0.15-7.8 0-13.925 2.325-18.375 6.975-4.45 4.65-6.675 11.275-6.675 19.875v39.6h-14.4v-79.5h13.8v13.35zm80.55 67.05c-8.1 0-15.325-1.75-21.675-5.25-6.35-3.5-11.325-8.325-14.925-14.475s-5.4-13.125-5.4-20.925 1.8-14.775 5.4-20.925c3.6-6.15 8.575-10.95 14.925-14.4 6.35-3.45 13.575-5.175 21.675-5.175 7.2 0 13.625 1.45 19.275 4.35s10.025 7.1 13.125 12.6l-10.95 7.05c-2.5-3.8-5.6-6.65-9.3-8.55-3.7-1.9-7.8-2.85-12.3-2.85-5.2 0-9.875 1.15-14.025 3.45s-7.4 5.575-9.75 9.825-3.525 9.125-3.525 14.625c0 5.6 1.175 10.525 3.525 14.775s5.6 7.525 9.75 9.825c4.15 2.3 8.825 3.45 14.025 3.45 4.5 0 8.6-0.94999 12.3-2.85 3.7-1.9 6.8-4.75 9.3-8.55l10.95 6.9c-3.1 5.5-7.475 9.725-13.125 12.675s-12.075 4.425-19.275 4.425zm121.65-40.2c0 1.1-0.099999 2.55-0.3 4.35h-64.5c0.9 7 3.975 12.625 9.225 16.875s11.775 6.375 19.575 6.375c9.5 0 17.15-3.2 22.95-9.6l7.95 9.3c-3.6 4.2-8.075 7.4-13.425 9.6s-11.325 3.3-17.925 3.3c-8.4 0-15.85-1.725-22.35-5.175-6.5-3.45-11.525-8.275-15.075-14.475s-5.325-13.2-5.325-21c0-7.7 1.725-14.65 5.175-20.85s8.2-11.025 14.25-14.475c6.05-3.45 12.875-5.175 20.475-5.175s14.375 1.725 20.325 5.175c5.95 3.45 10.6 8.275 13.95 14.475s5.025 13.3 5.025 21.3zm-39.3-28.8c-6.9 0-12.675 2.1-17.325 6.3s-7.375 9.7-8.175 16.5h51c-0.8-6.7-3.525-12.175-8.175-16.425-4.65-4.25-10.425-6.375-17.325-6.375zm101.7-12.15c10.1 0 18.125 2.925 24.075 8.775s8.925 14.425 8.925 25.725v45.75h-14.4v-44.1c0-7.7-1.85-13.5-5.55-17.4-3.7-3.9-9-5.85-15.9-5.85-7.8 0-13.95 2.275-18.45 6.825s-6.75 11.075-6.75 19.575v40.95h-14.4v-79.5h13.8v12c2.9-4.1 6.825-7.25 11.775-9.45s10.575-3.3 16.875-3.3zm104.4 75.6c-2.1 1.8-4.7 3.175-7.8 4.125-3.1 0.95-6.3 1.425-9.6 1.425-8 0-14.2-2.15-18.6-6.45-4.4-4.3-6.6-10.45-6.6-18.45v-43.65h-13.5v-11.85h13.5v-17.4h14.4v17.4h22.8v11.85h-22.8v43.05c0 4.3 1.075 7.6 3.225 9.9s5.225 3.45 9.225 3.45c4.4 0 8.15-1.25 11.25-3.75l4.5 10.35z" fill="#fff"/></g></g></g></svg>
